<?xml version="1.0" encoding="UTF-8"?>
<svg id="Camada_2" data-name="Camada 2" xmlns="http://www.w3.org/2000/svg" viewBox="0 0 803.71 865.77">
  <defs>
    <style>
      .cls-1 {
        fill: #5498d2;
      }

      .cls-1, .cls-2, .cls-3 {
        stroke-width: 0px;
      }

      .cls-2 {
        fill: #7ebce8;
      }

      .cls-3 {
        fill: #7fbae7;
      }
    </style>
  </defs>
  <g id="Camada_1-2" data-name="Camada 1">
    <g>
      <path class="cls-1" d="M803.71,206.12v450.67c0,23.59-13.89,44.97-35.44,54.57l-329.34,146.63c-11.79,5.25-24.44,7.85-37.07,7.78v-489.26c12.33.07,24.67-2.46,36.18-7.59l32.95-14.67,332.72-148.13Z"/>
      <path class="cls-3" d="M401.86,376.51v489.26c-12.33-.05-24.64-2.65-36.15-7.78L35.44,710.94c-21.55-9.6-35.44-30.98-35.44-54.57V205.7l333.64,148.55h.01l32.95,14.67c11.23,5,23.24,7.54,35.26,7.59"/>
      <path class="cls-2" d="M776.64,157.02l-342.57,152.53c-20.21,9-43.29,9-63.49,0L27.99,157.02,360.83,8.82c26.41-11.76,56.57-11.76,82.98,0l332.83,148.2Z"/>
    </g>
  </g>
</svg>