<?xml version="1.0" encoding="UTF-8"?>
<!DOCTYPE svg PUBLIC "-//W3C//DTD SVG 1.1//EN" "http://www.w3.org/Graphics/SVG/1.1/DTD/svg11.dtd">
<!-- Creator: CorelDRAW -->
<svg xmlns="http://www.w3.org/2000/svg" xml:space="preserve" width="25.2317mm" height="31.8958mm" version="1.1" style="shape-rendering:geometricPrecision; text-rendering:geometricPrecision; image-rendering:optimizeQuality; fill-rule:evenodd; clip-rule:evenodd"
viewBox="0 0 2510.52 3173.59"
 xmlns:xlink="http://www.w3.org/1999/xlink"
 xmlns:xodm="http://www.corel.com/coreldraw/odm/2003">
 <defs>
  <style type="text/css">
   <![CDATA[
    .fil1 {fill:#FEFEFE}
    .fil0 {fill:#E31E25}
   ]]>
  </style>
 </defs>
 <g id="Camada_x0020_1">
  <metadata id="CorelCorpID_0Corel-Layer"/>
  <g id="_3137666413520">
   <path class="fil0" d="M1938.33 797.46c155.78,0 282.11,126.34 282.11,282.14 0,155.78 -126.33,282.11 -282.11,282.11 -155.78,0 -282.11,-126.33 -282.11,-282.11 0,-155.81 126.33,-282.13 282.11,-282.14z"/>
   <path class="fil0" d="M1825.31 194.21c155.77,0 282.11,126.34 282.11,282.13 0,155.78 -126.34,282.11 -282.13,282.11 -155.79,0 -282.12,-126.33 -282.12,-282.11 0.01,-155.79 126.33,-282.13 282.14,-282.13z"/>
   <path class="fil0" d="M2349.34 330.5c-89.03,0 -161.22,72.21 -161.22,161.22 0,89 72.18,161.22 161.2,161.22 89.02,0 161.21,-72.21 161.21,-161.22 0,-89.01 -72.19,-161.22 -161.19,-161.22z"/>
   <path class="fil0" d="M2252.49 0c53.41,0 96.73,43.35 96.73,96.74 0,53.42 -43.32,96.73 -96.73,96.73 -53.41,0 -96.72,-43.31 -96.72,-96.73 0,-53.43 43.31,-96.74 96.72,-96.74z"/>
   <path class="fil0" d="M2349.53 2102.34c-20.07,236.7 -83.09,371.58 -207.12,384.71 -98.94,10.46 -170.45,4.88 -260.24,63.57 -127.4,83.28 -215.62,238.23 -229.53,402.23 -9.46,111.71 14.97,132.21 -108.34,169.68 -772.63,234.7 -1612.04,-368.5 -1539.96,-1218.98 54.32,-640.67 642.61,-1114.1 1283.29,-1059.8 640.69,54.3 1116.21,617.92 1061.91,1258.59z"/>
   <path class="fil1" d="M432.64 1778.73l260.2 0 46.13 -224.86 133.38 49.14 -107.26 524.96c-15.39,75.31 -88.11,136.93 -161.43,136.93l-270.8 0c-73.31,0 -120.67,-61.62 -105.22,-136.93l43.57 -212.31c15.46,-75.3 88.09,-136.92 161.43,-136.93zm38.65 139.5l199.36 0 -12.23 59.57 -7.55 36.86 -10.5 51.08c-6.72,32.78 -39.41,59.59 -72.63,59.59l-138.96 0c-33.22,0 -54.9,-26.8 -48.16,-59.59l18.04 -87.95c6.72,-32.76 39.41,-59.57 72.63,-59.57z"/>
   <polygon class="fil1" points="1249.65,1858.76 1169.97,2264.9 1026.07,2264.9 1105.76,1858.76 855.11,1858.76 884.64,1714.87 1571.18,1714.87 1492.63,1858.76 "/>
   <path class="fil1" d="M1675.5 1958.25l23.27 -113.37c1.2,-5.85 7.03,-10.68 12.9,-10.68 92.37,-0.01 184.79,0 277.17,0 5.85,-0.01 9.7,4.83 8.5,10.68l-29.41 143.36c-1.2,5.85 -7.04,10.7 -12.9,10.7l-287.86 0 8.33 -40.69zm-31.27 153.6l-32.25 157.16 -119.74 0 113.7 -554.13 17.4 0c139.37,0 292.64,0 431.99,0 49.58,0 81.76,40.49 71.58,90.07l-44.49 216.84c-10.16,49.56 -58.98,90.07 -108.55,90.07l-329.65 0z"/>
   <path class="fil0" d="M237.24 2835.5c11.98,0 23.65,3.07 35.07,9.2 11.39,6.15 20.31,14.94 26.66,26.39 6.36,11.42 9.55,23.35 9.55,35.79 0,12.3 -3.13,24.11 -9.41,35.43 -6.27,11.35 -15.08,20.17 -26.38,26.42 -11.32,6.3 -23.12,9.42 -35.49,9.42 -12.35,0 -24.21,-3.12 -35.49,-9.42 -11.32,-6.25 -20.14,-15.06 -26.44,-26.42 -6.32,-11.32 -9.44,-23.13 -9.44,-35.43 0,-12.44 3.19,-24.37 9.58,-35.79 6.4,-11.44 15.29,-20.24 26.72,-26.39 11.39,-6.13 23.1,-9.2 35.07,-9.2zm0 11.82c-10.03,0 -19.77,2.58 -29.26,7.7 -9.49,5.13 -16.91,12.5 -22.27,22.01 -5.36,9.54 -8.03,19.48 -8.03,29.85 0,10.26 2.65,20.1 7.91,29.52 5.24,9.43 12.62,16.79 22.06,22.05 9.46,5.25 19.3,7.9 29.59,7.9 10.27,0 20.14,-2.65 29.58,-7.9 9.46,-5.26 16.79,-12.62 22.01,-22.05 5.24,-9.42 7.84,-19.26 7.84,-29.52 0,-10.37 -2.65,-20.31 -7.96,-29.85 -5.32,-9.51 -12.74,-16.87 -22.27,-22.01 -9.51,-5.12 -19.26,-7.7 -29.2,-7.7zm-31.3 98.95l0 -76.72 26.37 0c9.03,0 15.56,0.67 19.59,2.1 4.03,1.42 7.22,3.89 9.64,7.41 2.4,3.55 3.59,7.29 3.59,11.27 0,5.6 -2,10.48 -6.01,14.64 -4,4.16 -9.32,6.49 -15.95,7.01 2.72,1.12 4.92,2.48 6.54,4.06 3.07,3.02 6.85,8.1 11.34,15.23l9.37 14.99 -15.14 0 -6.8 -12.09c-5.37,-9.49 -9.65,-15.45 -12.96,-17.85 -2.24,-1.77 -5.57,-2.65 -9.94,-2.65l-7.25 0 0 32.59 -12.39 0zm12.39 -43.16l15.05 0c7.14,0 12.06,-1.09 14.68,-3.23 2.61,-2.14 3.94,-4.96 3.94,-8.52 0,-2.26 -0.65,-4.29 -1.91,-6.1 -1.26,-1.78 -3,-3.12 -5.23,-4.01 -2.26,-0.89 -6.4,-1.32 -12.46,-1.32l-14.07 0 0 23.18z"/>
  </g>
 </g>
</svg>
